# xmcd
#
# Track frame offsets:
#	150
#	16530
#	29545
#	44327
#	60267
#	77032
#	90837
#	109425
#	125570
#	137160
#	153267
#	169412
#	179930
#	195417
#
# Disc length: 2825 seconds
#
# Revision: 1
# Processed by: cddbd v1.5.2PL0 Copyright (c) Steve Scherf et al.
# Submitted via: audiograbber 1.83.01
#
DISCID=b40b070e
DTITLE=Partytime-Singers - Party-Knaller
DYEAR=2000
DGENRE=Party
TTITLE0=Anton aus Tirol
TTITLE1=Hände zum Himmel
TTITLE2=La Bomba
TTITLE3=Hey Baby (uhh, ahh)
TTITLE4=Latino Lover
TTITLE5=Ich vermiss dich wie die Hölle
TTITLE6=Gemma Bier trinken
TTITLE7=Wahnsinn (Hölle, Hölle, Hölle)
TTITLE8=Der Kaiser von Mallorca
TTITLE9=Shalala Lala
TTITLE10=Wieder alles im Griff
TTITLE11=Das Leben ist geil
TTITLE12=Drei weiße Tauben
TTITLE13=Mamma Mia
EXTD=Produziert von Royal Entertainment\n-hgg-
EXTT0=
EXTT1=
EXTT2=
EXTT3=
EXTT4=
EXTT5=
EXTT6=
EXTT7=
EXTT8=
EXTT9=
EXTT10=
EXTT11=
EXTT12=
EXTT13=
PLAYORDER=
